<?xml version="1.0" encoding="UTF-8"?>
<svg width="854.54" height="854.54" version="1.1" viewBox="0 0 854.54 854.54" xmlns="http://www.w3.org/2000/svg">
 <path d="m352.03 215.82c-6.6866-16.152-24.315-24.749-41.162-20.147l-76.418 20.841c-15.11 4.1683-25.617 17.889-25.617 33.52 0 214.84 174.2 389.04 389.04 389.04 15.631 0 29.352-10.508 33.52-25.617l20.841-76.418c4.6025-16.847-3.9946-34.475-20.147-41.162l-83.365-34.736c-14.155-5.905-30.567-1.8236-40.206 10.073l-35.083 42.812c-61.135-28.917-110.63-78.416-139.55-139.55l42.812-34.996c11.897-9.726 15.978-26.052 10.073-40.206l-34.736-83.365z" stroke-width=".86839"/>
 <circle cx="427.27" cy="427.27" r="410.1" fill="none" stroke="#000" stroke-width="34.339"/>
</svg>
